<?xml version="1.0" standalone="no"?>
<svg xmlns="http://www.w3.org/2000/svg" viewBox="0 0 71 60" width="71" height="60"><g fill="#deab26" color="#deab26" transform="translate(17.997 0) scale(0.7291667) "><svg width="48.0" height="40.0" x="0.0" y="0.0" viewBox="0 0 48 40"><path fill="currentColor" fill-rule="evenodd" d="M41.576 0L12.872 28.703v-2.95L38.625 0h-4.1l-10.9 10.898L12.725 0h-4.1l12.949 12.95-1.476 1.474L5.675 0h-4.1l16.474 16.475-1.475 1.475L0 1.376V40h2.9V8.378l2.087 2.086V40h2.9V13.364l2.086 2.087V40h2.9v-.146l10.752-10.752L34.525 40h2.951V15.253l2.086-2.087V40h2.9V10.266l2.087-2.086V40h2.898V5.434h-.153l.153-.154V1.178L12.872 35.754v-2.95L45.675 0h-4.1zm-8.849 20l1.848-1.848v3.697L32.727 20zm-19.855-1.65L14.522 20l-1.65 1.65V18.35zm16.329 5.176l1.476-1.474 3.898 3.899v2.952l-5.374-5.377zm-3.526 3.526l1.475-1.476 7.425 7.426v2.95l-8.9-8.9z"></path></svg></g><line x1="19.046000000000003" y1="35.166666666666664" x2="51.946" y2="35.166666666666664" stroke="#0f1c93" stroke-linecap="round"></line><path fill="#0f1c93" fill-rule="nonzero" d="M9.67 13.56L12.55 1.20L18.96 1.20L18.96 1.66L17.64 1.66L17.64 17.54L18.96 17.54L18.96 18L11.64 18L11.64 17.54L12.96 17.54L12.96 2.54L12.86 2.54L9.26 18L6.26 18L2.04 2.47L1.94 2.47L1.94 17.54L3.26 17.54L3.26 18L0 18L0 17.54L1.32 17.54L1.32 1.66L0 1.66L0 1.20L6.48 1.20L9.67 13.56ZM25.56 12.36L25.56 12.36L26.26 12.36L26.26 10.51Q26.26 8.23 26.00 7.45Q25.75 6.67 25.03 6.67L25.03 6.67Q24.60 6.67 24.25 6.90Q23.90 7.13 23.90 7.52Q23.90 7.92 24.05 8.33L24.05 8.33L24.65 8.33Q24.84 8.83 24.84 9.54Q24.84 10.25 24.24 10.76Q23.64 11.28 22.73 11.28L22.73 11.28Q20.66 11.28 20.66 9.29L20.66 9.29Q20.66 6.34 25.68 6.34L25.68 6.34Q28.54 6.34 29.63 7.31Q30.72 8.28 30.72 10.87L30.72 10.87L30.72 15.74Q30.72 16.99 31.42 16.99L31.42 16.99Q32.23 16.99 32.38 14.52L32.38 14.52L32.74 14.54Q32.64 16.66 31.94 17.45Q31.25 18.24 29.66 18.24L29.66 18.24Q26.78 18.24 26.35 16.46L26.35 16.46Q26.04 17.38 25.42 17.81Q24.79 18.24 23.59 18.24L23.59 18.24Q20.04 18.24 20.04 15.34L20.04 15.34Q20.04 13.63 21.40 13.00Q22.75 12.36 25.56 12.36ZM24.60 15.31Q24.60 16.56 24.73 16.92Q24.86 17.28 25.24 17.28Q25.61 17.28 25.93 16.67Q26.26 16.06 26.26 14.98L26.26 14.98L26.26 12.74L26.09 12.74Q24.60 12.74 24.60 14.93L24.60 14.93L24.60 15.31ZM38.74 12.36L38.74 12.36L39.43 12.36L39.43 10.51Q39.43 8.23 39.18 7.45Q38.93 6.67 38.21 6.67L38.21 6.67Q37.78 6.67 37.43 6.90Q37.08 7.13 37.08 7.52Q37.08 7.92 37.22 8.33L37.22 8.33L37.82 8.33Q38.02 8.83 38.02 9.54Q38.02 10.25 37.42 10.76Q36.82 11.28 35.90 11.28L35.90 11.28Q33.84 11.28 33.84 9.29L33.84 9.29Q33.84 6.34 38.86 6.34L38.86 6.34Q41.71 6.34 42.80 7.31Q43.90 8.28 43.90 10.87L43.90 10.87L43.90 15.74Q43.90 16.99 44.59 16.99L44.59 16.99Q45.41 16.99 45.55 14.52L45.55 14.52L45.91 14.54Q45.82 16.66 45.12 17.45Q44.42 18.24 42.84 18.24L42.84 18.24Q39.96 18.24 39.53 16.46L39.53 16.46Q39.22 17.38 38.59 17.81Q37.97 18.24 36.77 18.24L36.77 18.24Q33.22 18.24 33.22 15.34L33.22 15.34Q33.22 13.63 34.57 13.00Q35.93 12.36 38.74 12.36ZM37.78 15.31Q37.78 16.56 37.91 16.92Q38.04 17.28 38.41 17.28Q38.78 17.28 39.11 16.67Q39.43 16.06 39.43 14.98L39.43 14.98L39.43 12.74L39.26 12.74Q37.78 12.74 37.78 14.93L37.78 14.93L37.78 15.31ZM46.99 18.24L46.70 18.24L46.70 13.94L46.99 13.94Q47.62 16.03 48.67 16.87Q49.73 17.71 51.31 17.71L51.31 17.71Q53.76 17.71 53.76 16.15L53.76 16.15Q53.76 15.48 53.16 15.14L53.16 15.14Q52.22 14.62 50.76 14.33L50.76 14.33Q49.13 13.90 48.02 13.18L48.02 13.18Q46.70 12.31 46.70 10.44Q46.70 8.57 47.86 7.45Q49.01 6.34 50.93 6.34L50.93 6.34Q52.10 6.34 53.35 6.89L53.35 6.89Q53.81 7.08 54.05 7.08Q54.29 7.08 54.46 6.91Q54.62 6.74 54.86 6.29L54.86 6.29L55.13 6.29L55.13 9.96L54.84 9.96Q53.62 6.84 51.05 6.84L51.05 6.84Q49.92 6.84 49.37 7.24Q48.82 7.63 48.82 8.23L48.82 8.23Q48.82 8.59 48.98 8.80Q49.15 9 49.25 9.10Q49.34 9.19 49.56 9.30Q49.78 9.41 49.92 9.47Q50.06 9.53 50.36 9.62Q50.66 9.72 50.81 9.74L50.81 9.74Q52.44 10.15 53.16 10.45Q53.88 10.75 54.53 11.18L54.53 11.18Q55.85 12.10 55.85 14.12Q55.85 16.15 54.65 17.20Q53.45 18.24 51.36 18.24L51.36 18.24Q49.87 18.24 48.48 17.54L48.48 17.54Q48.19 17.35 48.02 17.35L48.02 17.35Q47.50 17.35 46.99 18.24L46.99 18.24ZM56.57 0.43L56.57 0L62.35 0L62.35 8.78Q62.74 7.68 63.53 7.01Q64.32 6.34 65.93 6.34L65.93 6.34Q69.65 6.34 69.65 10.34L69.65 10.34L69.65 17.57L70.99 17.57L70.99 18L64.20 18L64.20 17.57L65.18 17.57L65.18 9.77Q65.18 8.33 64.99 7.91Q64.80 7.49 64.30 7.49L64.30 7.49Q63.53 7.49 62.94 8.50Q62.35 9.50 62.35 10.94L62.35 10.94L62.35 17.57L63.38 17.57L63.38 18L56.57 18L56.57 17.57L57.89 17.57L57.89 0.43L56.57 0.43Z" transform="translate(0, 41.167)"></path></svg>